  0
SECTION
  2
HEADER
  9
$ACADVER
  1
AC1024
  9
$ACADMAINTVER
 70
     6
  9
$DWGCODEPAGE
  3
UNDEFINED
  9
$INSBASE
 10
0.0
 20
0.0
 30
0.0
  9
$EXTMIN
 10
1.000000000000000E+20
 20
1.000000000000000E+20
 30
1.000000000000000E+20
  9
$EXTMAX
 10
-1.000000000000000E+20
 20
-1.000000000000000E+20
 30
-1.000000000000000E+20
  9
$LIMMIN
 10
0.0
 20
0.0
  9
$LIMMAX
 10
12.0
 20
9.0
  9
$ORTHOMODE
 70
     0
  9
$REGENMODE
 70
     1
  9
$FILLMODE
 70
     1
  9
$QTEXTMODE
 70
     0
  9
$MIRRTEXT
 70
     1
  9
$LTSCALE
 40
1.0
  9
$ATTMODE
 70
     1
  9
$TEXTSIZE
 40
0.2
  9
$TRACEWID
 40
0.05
  9
$TEXTSTYLE
  7
Standard
  9
$CLAYER
  8
0
  9
$CELTYPE
  6
ByLayer
  9
$CECOLOR
 62
   256
  9
$CELTSCALE
 40
1.0
  9
$DISPSILH
 70
     0
  9
$DIMSCALE
 40
1.0
  9
$DIMASZ
 40
0.18
  9
$DIMEXO
 40
0.0625
  9
$DIMDLI
 40
0.38
  9
$DIMRND
 40
0.0
  9
$DIMDLE
 40
0.0
  9
$DIMEXE
 40
0.18
  9
$DIMTP
 40
0.0
  9
$DIMTM
 40
0.0
  9
$DIMTXT
 40
0.18
  9
$DIMCEN
 40
0.09
  9
$DIMTSZ
 40
0.0
  9
$DIMTOL
 70
     0
  9
$DIMLIM
 70
     0
  9
$DIMTIH
 70
     1
  9
$DIMTOH
 70
     1
  9
$DIMSE1
 70
     0
  9
$DIMSE2
 70
     0
  9
$DIMTAD
 70
     0
  9
$DIMZIN
 70
     0
  9
$DIMBLK
  1

  9
$DIMASO
 70
     1
  9
$DIMSHO
 70
     1
  9
$DIMPOST
  1

  9
$DIMAPOST
  1

  9
$DIMALT
 70
     0
  9
$DIMALTD
 70
     2
  9
$DIMALTF
 40
25.4
  9
$DIMLFAC
 40
1.0
  9
$DIMTOFL
 70
     0
  9
$DIMTVP
 40
0.0
  9
$DIMTIX
 70
     0
  9
$DIMSOXD
 70
     0
  9
$DIMSAH
 70
     0
  9
$DIMBLK1
  1

  9
$DIMBLK2
  1

  9
$DIMSTYLE
  2
Standard
  9
$DIMCLRD
 70
     0
  9
$DIMCLRE
 70
     0
  9
$DIMCLRT
 70
     0
  9
$DIMTFAC
 40
1.0
  9
$DIMGAP
 40
0.09
  9
$DIMJUST
 70
     0
  9
$DIMSD1
 70
     0
  9
$DIMSD2
 70
     0
  9
$DIMTOLJ
 70
     1
  9
$DIMTZIN
 70
     0
  9
$DIMALTZ
 70
     0
  9
$DIMALTTZ
 70
     0
  9
$DIMUPT
 70
     0
  9
$DIMDEC
 70
     4
  9
$DIMTDEC
 70
     4
  9
$DIMALTU
 70
     2
  9
$DIMALTTD
 70
     2
  9
$DIMTXSTY
  7
Standard
  9
$DIMAUNIT
 70
     0
  9
$DIMADEC
 70
     0
  9
$DIMALTRND
 40
0.0
  9
$DIMAZIN
 70
     0
  9
$DIMDSEP
 70
    46
  9
$DIMATFIT
 70
     3
  9
$DIMFRAC
 70
     0
  9
$DIMLDRBLK
  1

  9
$DIMLUNIT
 70
     2
  9
$DIMLWD
 70
    -2
  9
$DIMLWE
 70
    -2
  9
$DIMTMOVE
 70
     0
  9
$DIMFXL
 40
1.0
  9
$DIMFXLON
 70
     0
  9
$DIMJOGANG
 40
0.7853981633974483
  9
$DIMTFILL
 70
     0
  9
$DIMTFILLCLR
 70
     0
  9
$DIMARCSYM
 70
     0
  9
$DIMLTYPE
  6

  9
$DIMLTEX1
  6

  9
$DIMLTEX2
  6

  9
$DIMTXTDIRECTION
 70
     0
  9
$LUNITS
 70
     2
  9
$LUPREC
 70
     4
  9
$SKETCHINC
 40
0.1
  9
$FILLETRAD
 40
0.5
  9
$AUNITS
 70
     0
  9
$AUPREC
 70
     0
  9
$MENU
  1
.
  9
$ELEVATION
 40
0.0
  9
$PELEVATION
 40
0.0
  9
$THICKNESS
 40
0.0
  9
$LIMCHECK
 70
     0
  9
$CHAMFERA
 40
0.5
  9
$CHAMFERB
 40
0.5
  9
$CHAMFERC
 40
1.0
  9
$CHAMFERD
 40
0.0
  9
$SKPOLY
 70
     0
  9
$TDCREATE
 40
2458374.724421285
  9
$TDUCREATE
 40
2458375.016087963
  9
$TDUPDATE
 40
2458374.724421285
  9
$TDUUPDATE
 40
2458375.016087963
  9
$TDINDWG
 40
0.0000000116
  9
$TDUSRTIMER
 40
0.0000000116
  9
$USRTIMER
 70
     1
  9
$ANGBASE
 50
0.0
  9
$ANGDIR
 70
     0
  9
$PDMODE
 70
     0
  9
$PDSIZE
 40
0.0
  9
$PLINEWID
 40
0.0
  9
$SPLFRAME
 70
     0
  9
$SPLINETYPE
 70
     6
  9
$SPLINESEGS
 70
     8
  9
$HANDSEED
  5
92
  9
$SURFTAB1
 70
     6
  9
$SURFTAB2
 70
     6
  9
$SURFTYPE
 70
     6
  9
$SURFU
 70
     6
  9
$SURFV
 70
     6
  9
$UCSBASE
  2

  9
$UCSNAME
  2

  9
$UCSORG
 10
0.0
 20
0.0
 30
0.0
  9
$UCSXDIR
 10
1.0
 20
0.0
 30
0.0
  9
$UCSYDIR
 10
0.0
 20
1.0
 30
0.0
  9
$UCSORTHOREF
  2

  9
$UCSORTHOVIEW
 70
     0
  9
$UCSORGTOP
 10
0.0
 20
0.0
 30
0.0
  9
$UCSORGBOTTOM
 10
0.0
 20
0.0
 30
0.0
  9
$UCSORGLEFT
 10
0.0
 20
0.0
 30
0.0
  9
$UCSORGRIGHT
 10
0.0
 20
0.0
 30
0.0
  9
$UCSORGFRONT
 10
0.0
 20
0.0
 30
0.0
  9
$UCSORGBACK
 10
0.0
 20
0.0
 30
0.0
  9
$PUCSBASE
  2

  9
$PUCSNAME
  2

  9
$PUCSORG
 10
0.0
 20
0.0
 30
0.0
  9
$PUCSXDIR
 10
1.0
 20
0.0
 30
0.0
  9
$PUCSYDIR
 10
0.0
 20
1.0
 30
0.0
  9
$PUCSORTHOREF
  2

  9
$PUCSORTHOVIEW
 70
     0
  9
$PUCSORGTOP
 10
0.0
 20
0.0
 30
0.0
  9
$PUCSORGBOTTOM
 10
0.0
 20
0.0
 30
0.0
  9
$PUCSORGLEFT
 10
0.0
 20
0.0
 30
0.0
  9
$PUCSORGRIGHT
 10
0.0
 20
0.0
 30
0.0
  9
$PUCSORGFRONT
 10
0.0
 20
0.0
 30
0.0
  9
$PUCSORGBACK
 10
0.0
 20
0.0
 30
0.0
  9
$USERI1
 70
     0
  9
$USERI2
 70
     0
  9
$USERI3
 70
     0
  9
$USERI4
 70
     0
  9
$USERI5
 70
     0
  9
$USERR1
 40
0.0
  9
$USERR2
 40
0.0
  9
$USERR3
 40
0.0
  9
$USERR4
 40
0.0
  9
$USERR5
 40
0.0
  9
$WORLDVIEW
 70
     1
  9
$SHADEDGE
 70
     3
  9
$SHADEDIF
 70
    70
  9
$TILEMODE
 70
     1
  9
$MAXACTVP
 70
    64
  9
$PINSBASE
 10
0.0
 20
0.0
 30
0.0
  9
$PLIMCHECK
 70
     0
  9
$PEXTMIN
 10
1.000000000000000E+20
 20
1.000000000000000E+20
 30
1.000000000000000E+20
  9
$PEXTMAX
 10
-1.000000000000000E+20
 20
-1.000000000000000E+20
 30
-1.000000000000000E+20
  9
$PLIMMIN
 10
0.0
 20
0.0
  9
$PLIMMAX
 10
12.0
 20
9.0
  9
$UNITMODE
 70
     0
  9
$VISRETAIN
 70
     1
  9
$PLINEGEN
 70
     0
  9
$PSLTSCALE
 70
     1
  9
$TREEDEPTH
 70
  3020
  9
$CMLSTYLE
  2
Standard
  9
$CMLJUST
 70
     0
  9
$CMLSCALE
 40
1.0
  9
$PROXYGRAPHICS
 70
     1
  9
$MEASUREMENT
 70
     0
  9
$CELWEIGHT
370
    -1
  9
$ENDCAPS
280
     0
  9
$JOINSTYLE
280
     0
  9
$LWDISPLAY
290
     1
  9
$INSUNITS
 70
     1
  9
$HYPERLINKBASE
  1

  9
$STYLESHEET
  1

  9
$XEDIT
290
     1
  9
$CEPSNTYPE
380
     0
  9
$PSTYLEMODE
290
     1
  9
$FINGERPRINTGUID
  2
{DBEB3A74-B8CA-9E5B-E2C6-F0C3789EFDF2}
  9
$VERSIONGUID
  2
{FAEB1C32-E019-11D5-929B-00C0DF256EC4}
  9
$EXTNAMES
290
     1
  9
$PSVPSCALE
 40
0.0
  9
$OLESTARTUP
290
     0
  9
$SORTENTS
280
   127
  9
$INDEXCTL
280
     0
  9
$HIDETEXT
280
     1
  9
$XCLIPFRAME
280
     2
  9
$HALOGAP
280
     0
  9
$OBSCOLOR
 70
   257
  9
$OBSLTYPE
280
     0
  9
$INTERSECTIONDISPLAY
280
     0
  9
$INTERSECTIONCOLOR
 70
   257
  9
$DIMASSOC
280
     2
  9
$PROJECTNAME
  1

  9
$CAMERADISPLAY
290
     0
  9
$LENSLENGTH
 40
50.0
  9
$CAMERAHEIGHT
 40
0.0
  9
$STEPSPERSEC
 40
2.0
  9
$STEPSIZE
 40
6.0
  9
$3DDWFPREC
 40
2.0
  9
$PSOLWIDTH
 40
0.25
  9
$PSOLHEIGHT
 40
4.0
  9
$LOFTANG1
 40
1.570796326794897
  9
$LOFTANG2
 40
1.570796326794897
  9
$LOFTMAG1
 40
0.0
  9
$LOFTMAG2
 40
0.0
  9
$LOFTPARAM
 70
     7
  9
$LOFTNORMALS
280
     1
  9
$LATITUDE
 40
37.795
  9
$LONGITUDE
 40
-122.394
  9
$NORTHDIRECTION
 40
0.0
  9
$TIMEZONE
 70
 -8000
  9
$LIGHTGLYPHDISPLAY
280
     1
  9
$TILEMODELIGHTSYNCH
280
     1
  9
$CMATERIAL
347
3C
  9
$SOLIDHIST
280
     1
  9
$SHOWHIST
280
     1
  9
$DWFFRAME
280
     2
  9
$DGNFRAME
280
     2
  9
$REALWORLDSCALE
290
     1
  9
$INTERFERECOLOR
 62
   256
  9
$CSHADOW
280
     0
  9
$SHADOWPLANELOCATION
 40
0.0
  0
ENDSEC
  0
SECTION
  2
CLASSES
  0
CLASS
  1
ACDBDICTIONARYWDFLT
  2
AcDbDictionaryWithDefault
  3
ObjectDBX Classes
 90
        0
 91
        4
280
     0
281
     0
  0
CLASS
  1
VISUALSTYLE
  2
AcDbVisualStyle
  3
ObjectDBX Classes
 90
     4095
 91
        4
280
     0
281
     0
  0
CLASS
  1
MATERIAL
  2
AcDbMaterial
  3
ObjectDBX Classes
 90
     1153
 91
        4
280
     0
281
     0
  0
CLASS
  1
SUN
  2
AcDbSun
  3
SCENEOE
 90
     1024
 91
        4
280
     0
281
     0
  0
ENDSEC
  0
SECTION
  2
TABLES
  0
TABLE
  2
VPORT
  5
8
330
0
100
AcDbSymbolTable
 70
     1
  0
VPORT
  5
29
330
8
100
AcDbSymbolTableRecord
100
AcDbViewportTableRecord
  2
*Active
 70
     0
 10
0.0
 20
0.0
 11
1.0
 21
1.0
 12
0.0
 22
0.0
 13
0.0
 23
0.0
 14
0.5
 24
0.5
 15
0.5
 25
0.5
 16
0.0
 26
0.0
 36
1.0
 17
9.0
 27
-12.0
 37
0.0
 40
24.0
 41
0.75
 42
50.0
 43
0.0
 44
0.0
 50
0.0
 51
0.0
 71
     0
 72
   100
 73
     1
 74
     3
 75
     0
 76
     0
 77
     0
 78
     0
281
     0
 65
     1
110
0.0
120
0.0
130
0.0
111
1.0
121
0.0
131
0.0
112
0.0
122
1.0
132
0.0
 79
     0
146
0.0
 60
     3
 61
     5
292
     1
282
     1
141
0.0
142
0.0
 63
   250
361
3F
  0
ENDTAB
  0
TABLE
  2
LTYPE
  5
5
330
0
100
AcDbSymbolTable
 70
     1
  0
LTYPE
  5
14
330
5
100
AcDbSymbolTableRecord
100
AcDbLinetypeTableRecord
  2
ByBlock
 70
     0
  3

 72
    65
 73
     0
 40
0.0
  0
LTYPE
  5
15
330
5
100
AcDbSymbolTableRecord
100
AcDbLinetypeTableRecord
  2
ByLayer
 70
     0
  3

 72
    65
 73
     0
 40
0.0
  0
LTYPE
  5
16
330
5
100
AcDbSymbolTableRecord
100
AcDbLinetypeTableRecord
  2
Continuous
 70
     0
  3
Solid line
 72
    65
 73
     0
 40
0.0
  0
ENDTAB
  0
TABLE
  2
LAYER
  5
2
330
0
100
AcDbSymbolTable
 70
     2
  0
LAYER
  5
10
330
2
100
AcDbSymbolTableRecord
100
AcDbLayerTableRecord
  2
0
 70
     0
 62
     7
  6
Continuous
370
    -3
390
F
347
3E
  0
LAYER
  5
40
330
2
100
AcDbSymbolTableRecord
100
AcDbLayerTableRecord
  2
Layer 1
 70
     0
 62
     7
  6
Continuous
370
    -3
390
F
347
3E
  0
ENDTAB
  0
TABLE
  2
STYLE
  5
3
330
0
100
AcDbSymbolTable
 70
     1
  0
STYLE
  5
11
330
3
100
AcDbSymbolTableRecord
100
AcDbTextStyleTableRecord
  2
Standard
 70
     0
 40
0.0
 41
1.0
 50
0.0
 71
     0
 42
0.2
  3
txt
  4

  0
ENDTAB
  0
TABLE
  2
VIEW
  5
6
330
0
100
AcDbSymbolTable
 70
     0
  0
ENDTAB
  0
TABLE
  2
UCS
  5
7
330
0
100
AcDbSymbolTable
 70
     0
  0
ENDTAB
  0
TABLE
  2
APPID
  5
9
330
0
100
AcDbSymbolTable
 70
     1
  0
APPID
  5
12
330
9
100
AcDbSymbolTableRecord
100
AcDbRegAppTableRecord
  2
ACAD
 70
     0
  0
ENDTAB
  0
TABLE
  2
DIMSTYLE
  5
A
330
0
100
AcDbSymbolTable
 70
     1
100
AcDbDimStyleTable
  0
DIMSTYLE
105
27
330
A
100
AcDbSymbolTableRecord
100
AcDbDimStyleTableRecord
  2
Standard
 70
     0
178
     0
340
11
  0
ENDTAB
  0
TABLE
  2
BLOCK_RECORD
  5
1
330
0
100
AcDbSymbolTable
 70
     2
  0
BLOCK_RECORD
  5
1F
330
1
100
AcDbSymbolTableRecord
100
AcDbBlockTableRecord
  2
*Model_Space
340
22
 70
     0
280
     1
281
     0
  0
BLOCK_RECORD
  5
1B
330
1
100
AcDbSymbolTableRecord
100
AcDbBlockTableRecord
  2
*Paper_Space
340
1E
 70
     0
280
     1
281
     0
  0
BLOCK_RECORD
  5
23
330
1
100
AcDbSymbolTableRecord
100
AcDbBlockTableRecord
  2
*Paper_Space0
340
26
 70
     0
280
     1
281
     0
  0
BLOCK_RECORD
  5
41
330
1
100
AcDbSymbolTableRecord
100
AcDbBlockTableRecord
  2
block 2
340
0
102
{BLKREFS
331
42
102
}
 70
     0
280
     1
281
     0
  0
ENDTAB
  0
ENDSEC
  0
SECTION
  2
BLOCKS
  0
BLOCK
  5
20
330
1F
100
AcDbEntity
  8
0
100
AcDbBlockBegin
  2
*Model_Space
 70
     0
 10
0.0
 20
0.0
 30
0.0
  3
*Model_Space
  1

  0
ENDBLK
  5
21
330
1F
100
AcDbEntity
  8
0
100
AcDbBlockEnd
  0
BLOCK
  5
1C
330
1B
100
AcDbEntity
 67
     1
  8
0
100
AcDbBlockBegin
  2
*Paper_Space
 70
     0
 10
0.0
 20
0.0
 30
0.0
  3
*Paper_Space
  1

  0
ENDBLK
  5
1D
330
1B
100
AcDbEntity
 67
     1
  8
0
100
AcDbBlockEnd
  0
BLOCK
  5
24
330
23
100
AcDbEntity
  8
0
100
AcDbBlockBegin
  2
*Paper_Space0
 70
     0
 10
0.0
 20
0.0
 30
0.0
  3
*Paper_Space0
  1

  0
ENDBLK
  5
25
330
23
100
AcDbEntity
  8
0
100
AcDbBlockEnd
  0
BLOCK
  5
43
330
41
100
AcDbEntity
  8
0
100
AcDbBlockBegin
  2
block 2
 70
     0
 10
0.0
 20
0.0
 30
0.0
  3
block 2
  1

  0
SPLINE
  5
45
330
41
100
AcDbEntity
  8
Layer 1
370
     0
100
AcDbSpline
210
0.0
220
0.0
230
1.0
 70
    11
 71
     3
 72
    41
 73
    37
 74
     0
 42
0.0000000001
 43
0.0000000001
 12
1.0
 22
0.0
 32
0.0
 13
1.0
 23
0.0
 33
0.0
 40
0.0
 40
0.0
 40
0.0
 40
0.0
 40
1.0
 40
1.0
 40
1.0
 40
2.0
 40
2.0
 40
2.0
 40
3.0
 40
3.0
 40
3.0
 40
4.0
 40
4.0
 40
4.0
 40
5.0
 40
5.0
 40
5.0
 40
6.0
 40
6.0
 40
6.0
 40
7.0
 40
7.0
 40
7.0
 40
8.0
 40
8.0
 40
8.0
 40
9.0
 40
9.0
 40
9.0
 40
10.0
 40
10.0
 40
10.0
 40
11.0
 40
11.0
 40
11.0
 40
12.0
 40
12.0
 40
12.0
 40
12.0
 10
9.580417209201388
 20
-13.632080078125
 30
0.0
 10
9.580417209201388
 20
-13.632080078125
 30
0.0
 10
9.701714409722221
 20
-13.59096950954861
 30
0.0
 10
9.701714409722221
 20
-13.59096950954861
 30
0.0
 10
9.701714409722221
 20
-13.59096950954861
 30
0.0
 10
9.712361653645832
 20
-13.59651692708333
 30
0.0
 10
9.712361653645832
 20
-13.59651692708333
 30
0.0
 10
9.713623046875
 20
-13.62787543402778
 30
0.0
 10
9.725667317708332
 20
-13.66654459635417
 30
0.0
 10
9.740980360243055
 20
-13.6922607421875
 30
0.0
 10
9.773247612847221
 20
-13.74639214409722
 30
0.0
 10
9.816446940104166
 20
-13.75273980034722
 30
0.0
 10
9.891560872395832
 20
-13.70798068576389
 30
0.0
 10
9.978854709201388
 20
-13.65595160590278
 30
0.0
 10
10.00128851996528
 20
-13.60590277777778
 30
0.0
 10
9.965806749131945
 20
-13.54635959201389
 30
0.0
 10
9.9512939453125
 20
-13.52199978298611
 30
0.0
 10
9.925306532118055
 20
-13.49072265625
 30
0.0
 10
9.901991102430555
 20
-13.47161187065972
 30
0.0
 10
9.901991102430555
 20
-13.47161187065972
 30
0.0
 10
9.902303059895832
 20
-13.45674641927083
 30
0.0
 10
9.902303059895832
 20
-13.45674641927083
 30
0.0
 10
9.902303059895832
 20
-13.45674641927083
 30
0.0
 10
10.01566569010417
 20
-13.40386284722222
 30
0.0
 10
10.01566569010417
 20
-13.40386284722222
 30
0.0
 10
10.04477267795139
 20
-13.42960611979167
 30
0.0
 10
10.06682671440972
 20
-13.46047634548611
 30
0.0
 10
10.08458116319444
 20
-13.49026150173611
 30
0.0
 10
10.17209201388889
 20
-13.63709852430556
 30
0.0
 10
10.13673231336806
 20
-13.75625271267361
 30
0.0
 10
9.992607964409721
 20
-13.84213595920139
 30
0.0
 10
9.847127278645832
 20
-13.92884657118056
 30
0.0
 10
9.713758680555555
 20
-13.89736599392361
 30
0.0
 10
9.62746853298611
 20
-13.75257703993056
 30
0.0
 10
9.603271484375
 20
-13.71198187934028
 30
0.0
 10
9.5882568359375
 20
-13.67141384548611
 30
0.0
 10
9.580417209201388
 20
-13.632080078125
 30
0.0
  0
HATCH
  5
46
330
41
100
AcDbEntity
  8
Layer 1
 62
     7
420
 16777215
100
AcDbHatch
 10
0.0
 20
0.0
 30
0.0
210
0.0
220
0.0
230
1.0
  2
SOLID
 70
     1
 71
     0
 91
        1
 92
        1
 93
        1
 72
     4
 94
        3
 73
     0
 74
     1
 95
       41
 96
       37
 40
0.0
 40
0.0
 40
0.0
 40
0.0
 40
1.0
 40
1.0
 40
1.0
 40
2.0
 40
2.0
 40
2.0
 40
3.0
 40
3.0
 40
3.0
 40
4.0
 40
4.0
 40
4.0
 40
5.0
 40
5.0
 40
5.0
 40
6.0
 40
6.0
 40
6.0
 40
7.0
 40
7.0
 40
7.0
 40
8.0
 40
8.0
 40
8.0
 40
9.0
 40
9.0
 40
9.0
 40
10.0
 40
10.0
 40
10.0
 40
11.0
 40
11.0
 40
11.0
 40
12.0
 40
12.0
 40
12.0
 40
12.0
 10
9.580417209201388
 20
-13.632080078125
 10
9.580417209201388
 20
-13.632080078125
 10
9.701714409722221
 20
-13.59096950954861
 10
9.701714409722221
 20
-13.59096950954861
 10
9.701714409722221
 20
-13.59096950954861
 10
9.712361653645832
 20
-13.59651692708333
 10
9.712361653645832
 20
-13.59651692708333
 10
9.713623046875
 20
-13.62787543402778
 10
9.725667317708332
 20
-13.66654459635417
 10
9.740980360243055
 20
-13.6922607421875
 10
9.773247612847221
 20
-13.74639214409722
 10
9.816446940104166
 20
-13.75273980034722
 10
9.891560872395832
 20
-13.70798068576389
 10
9.978854709201388
 20
-13.65595160590278
 10
10.00128851996528
 20
-13.60590277777778
 10
9.965806749131945
 20
-13.54635959201389
 10
9.9512939453125
 20
-13.52199978298611
 10
9.925306532118055
 20
-13.49072265625
 10
9.901991102430555
 20
-13.47161187065972
 10
9.901991102430555
 20
-13.47161187065972
 10
9.902303059895832
 20
-13.45674641927083
 10
9.902303059895832
 20
-13.45674641927083
 10
9.902303059895832
 20
-13.45674641927083
 10
10.01566569010417
 20
-13.40386284722222
 10
10.01566569010417
 20
-13.40386284722222
 10
10.04477267795139
 20
-13.42960611979167
 10
10.06682671440972
 20
-13.46047634548611
 10
10.08458116319444
 20
-13.49026150173611
 10
10.17209201388889
 20
-13.63709852430556
 10
10.13673231336806
 20
-13.75625271267361
 10
9.992607964409721
 20
-13.84213595920139
 10
9.847127278645832
 20
-13.92884657118056
 10
9.713758680555555
 20
-13.89736599392361
 10
9.62746853298611
 20
-13.75257703993056
 10
9.603271484375
 20
-13.71198187934028
 10
9.5882568359375
 20
-13.67141384548611
 10
9.580417209201388
 20
-13.632080078125
 97
        0
 97
        0
 75
     2
 76
     1
 98
        0
  0
POLYLINE
  5
47
330
41
100
AcDbEntity
  8
Layer 1
370
     0
100
AcDb2dPolyline
 66
     1
 10
0.0
 20
0.0
 30
0.0
  0
VERTEX
  5
48
330
47
100
AcDbEntity
  8
Layer 1
370
     0
100
AcDbVertex
100
AcDb2dVertex
 10
10.02617730034722
 20
-13.04243977864583
 30
0.0
  0
VERTEX
  5
49
330
47
100
AcDbEntity
  8
Layer 1
370
     0
100
AcDbVertex
100
AcDb2dVertex
 10
9.940850151909721
 20
-13.04717339409722
 30
0.0
  0
VERTEX
  5
4A
330
47
100
AcDbEntity
  8
Layer 1
370
     0
100
AcDbVertex
100
AcDb2dVertex
 10
9.938422309027777
 20
-13.04767523871528
 30
0.0
  0
VERTEX
  5
4B
330
47
100
AcDbEntity
  8
Layer 1
370
     0
100
AcDbVertex
100
AcDb2dVertex
 10
9.928276909722221
 20
-13.12419976128472
 30
0.0
  0
VERTEX
  5
4C
330
47
100
AcDbEntity
  8
Layer 1
370
     0
100
AcDbVertex
100
AcDb2dVertex
 10
9.924235026041666
 20
-13.18873426649306
 30
0.0
  0
VERTEX
  5
4D
330
47
100
AcDbEntity
  8
Layer 1
370
     0
100
AcDbVertex
100
AcDb2dVertex
 10
10.00726996527778
 20
-13.21149359809028
 30
0.0
  0
VERTEX
  5
4E
330
47
100
AcDbEntity
  8
Layer 1
370
     0
100
AcDbVertex
100
AcDb2dVertex
 10
9.990125868055555
 20
-13.36490885416667
 30
0.0
  0
VERTEX
  5
4F
330
47
100
AcDbEntity
  8
Layer 1
370
     0
100
AcDbVertex
100
AcDb2dVertex
 10
9.50088161892361
 20
-13.15489366319444
 30
0.0
  0
VERTEX
  5
50
330
47
100
AcDbEntity
  8
Layer 1
370
     0
100
AcDbVertex
100
AcDb2dVertex
 10
9.522054036458332
 20
-12.96549479166667
 30
0.0
  0
VERTEX
  5
51
330
47
100
AcDbEntity
  8
Layer 1
370
     0
100
AcDbVertex
100
AcDb2dVertex
 10
10.04393174913194
 20
-12.88355848524306
 30
0.0
  0
VERTEX
  5
52
330
47
100
AcDbEntity
  8
Layer 1
370
     0
100
AcDbVertex
100
AcDb2dVertex
 10
10.02617730034722
 20
-13.04243977864583
 30
0.0
  0
SEQEND
  5
53
330
47
100
AcDbEntity
  8
Layer 1
370
     0
  0
POLYLINE
  5
54
330
41
100
AcDbEntity
  8
Layer 1
370
     0
100
AcDb2dPolyline
 66
     1
 10
0.0
 20
0.0
 30
0.0
  0
VERTEX
  5
55
330
54
100
AcDbEntity
  8
Layer 1
370
     0
100
AcDbVertex
100
AcDb2dVertex
 10
9.651746961805555
 20
-13.07427300347222
 30
0.0
  0
VERTEX
  5
56
330
54
100
AcDbEntity
  8
Layer 1
370
     0
100
AcDbVertex
100
AcDb2dVertex
 10
9.650689019097221
 20
-13.08368598090278
 30
0.0
  0
VERTEX
  5
57
330
54
100
AcDbEntity
  8
Layer 1
370
     0
100
AcDbVertex
100
AcDb2dVertex
 10
9.811713324652777
 20
-13.14603678385417
 30
0.0
  0
VERTEX
  5
58
330
54
100
AcDbEntity
  8
Layer 1
370
     0
100
AcDbVertex
100
AcDb2dVertex
 10
9.817396375868055
 20
-13.10230848524306
 30
0.0
  0
VERTEX
  5
59
330
54
100
AcDbEntity
  8
Layer 1
370
     0
100
AcDbVertex
100
AcDb2dVertex
 10
9.821519639756945
 20
-13.05839029947917
 30
0.0
  0
VERTEX
  5
5A
330
54
100
AcDbEntity
  8
Layer 1
370
     0
100
AcDbVertex
100
AcDb2dVertex
 10
9.651746961805555
 20
-13.07427300347222
 30
0.0
  0
SEQEND
  5
5B
330
54
100
AcDbEntity
  8
Layer 1
370
     0
  0
HATCH
  5
5C
330
41
100
AcDbEntity
  8
Layer 1
 62
     7
420
 16777215
100
AcDbHatch
 10
0.0
 20
0.0
 30
0.0
210
0.0
220
0.0
230
1.0
  2
SOLID
 70
     1
 71
     0
 91
        2
 92
        1
 93
       10
 72
     1
 10
10.02617730034722
 20
-13.04243977864583
 11
9.940850151909721
 21
-13.04717339409722
 72
     1
 10
9.940850151909721
 20
-13.04717339409722
 11
9.938422309027777
 21
-13.04767523871528
 72
     1
 10
9.938422309027777
 20
-13.04767523871528
 11
9.928276909722221
 21
-13.12419976128472
 72
     1
 10
9.928276909722221
 20
-13.12419976128472
 11
9.924235026041666
 21
-13.18873426649306
 72
     1
 10
9.924235026041666
 20
-13.18873426649306
 11
10.00726996527778
 21
-13.21149359809028
 72
     1
 10
10.00726996527778
 20
-13.21149359809028
 11
9.990125868055555
 21
-13.36490885416667
 72
     1
 10
9.990125868055555
 20
-13.36490885416667
 11
9.50088161892361
 21
-13.15489366319444
 72
     1
 10
9.50088161892361
 20
-13.15489366319444
 11
9.522054036458332
 21
-12.96549479166667
 72
     1
 10
9.522054036458332
 20
-12.96549479166667
 11
10.04393174913194
 21
-12.88355848524306
 72
     1
 10
10.04393174913194
 20
-12.88355848524306
 11
10.02617730034722
 21
-13.04243977864583
 97
        0
 92
        1
 93
        5
 72
     1
 10
9.651746961805555
 20
-13.07427300347222
 11
9.650689019097221
 21
-13.08368598090278
 72
     1
 10
9.650689019097221
 20
-13.08368598090278
 11
9.811713324652777
 21
-13.14603678385417
 72
     1
 10
9.811713324652777
 20
-13.14603678385417
 11
9.817396375868055
 21
-13.10230848524306
 72
     1
 10
9.817396375868055
 20
-13.10230848524306
 11
9.821519639756945
 21
-13.05839029947917
 72
     1
 10
9.821519639756945
 20
-13.05839029947917
 11
9.651746961805555
 21
-13.07427300347222
 97
        0
 75
     2
 76
     1
 98
        0
  0
SPLINE
  5
5D
330
41
100
AcDbEntity
  8
Layer 1
370
     0
100
AcDbSpline
210
0.0
220
0.0
230
1.0
 70
    11
 71
     3
 72
    29
 73
    25
 74
     0
 42
0.0000000001
 43
0.0000000001
 12
1.0
 22
0.0
 32
0.0
 13
1.0
 23
0.0
 33
0.0
 40
0.0
 40
0.0
 40
0.0
 40
0.0
 40
1.0
 40
1.0
 40
1.0
 40
2.0
 40
2.0
 40
2.0
 40
3.0
 40
3.0
 40
3.0
 40
4.0
 40
4.0
 40
4.0
 40
5.0
 40
5.0
 40
5.0
 40
6.0
 40
6.0
 40
6.0
 40
7.0
 40
7.0
 40
7.0
 40
8.0
 40
8.0
 40
8.0
 40
8.0
 10
9.909925672743055
 20
-12.29184299045139
 30
0.0
 10
9.991984049479166
 20
-12.21241590711806
 30
0.0
 10
10.07834201388889
 20
-12.20993381076389
 30
0.0
 10
10.15064832899306
 20
-12.28462727864583
 30
0.0
 10
10.23552788628472
 20
-12.37232801649306
 30
0.0
 10
10.22686089409722
 20
-12.49472384982639
 30
0.0
 10
10.12840440538194
 20
-12.59002007378472
 30
0.0
 10
10.12840440538194
 20
-12.59002007378472
 30
0.0
 10
10.10068088107639
 20
-12.61686197916667
 30
0.0
 10
10.10068088107639
 20
-12.61686197916667
 30
0.0
 10
10.10068088107639
 20
-12.61686197916667
 30
0.0
 10
10.20486111111111
 20
-12.71657986111111
 30
0.0
 10
10.20486111111111
 20
-12.71657986111111
 30
0.0
 10
10.20486111111111
 20
-12.71657986111111
 30
0.0
 10
10.09113226996528
 20
-12.82666015625
 30
0.0
 10
10.09113226996528
 20
-12.82666015625
 30
0.0
 10
10.09113226996528
 20
-12.82666015625
 30
0.0
 10
9.992730034722221
 20
-12.71367730034722
 30
0.0
 10
9.992730034722221
 20
-12.71367730034722
 30
0.0
 10
9.992730034722221
 20
-12.71367730034722
 30
0.0
 10
9.736762152777777
 20
-12.46054416232639
 30
0.0
 10
9.736762152777777
 20
-12.46054416232639
 30
0.0
 10
9.736762152777777
 20
-12.46054416232639
 30
0.0
 10
9.909925672743055
 20
-12.29184299045139
 30
0.0
 10
9.909925672743055
 20
-12.29184299045139
 30
0.0
  0
SPLINE
  5
5E
330
41
100
AcDbEntity
  8
Layer 1
370
     0
100
AcDbSpline
210
0.0
220
0.0
230
1.0
 70
    11
 71
     3
 72
    20
 73
    16
 74
     0
 42
0.0000000001
 43
0.0000000001
 12
1.0
 22
0.0
 32
0.0
 13
1.0
 23
0.0
 33
0.0
 40
0.0
 40
0.0
 40
0.0
 40
0.0
 40
1.0
 40
1.0
 40
1.0
 40
2.0
 40
2.0
 40
2.0
 40
3.0
 40
3.0
 40
3.0
 40
4.0
 40
4.0
 40
4.0
 40
5.0
 40
5.0
 40
5.0
 40
5.0
 10
10.06757269965278
 20
-12.49546983506944
 30
0.0
 10
10.07698567708333
 20
-12.46442328559028
 30
0.0
 10
10.07014973958333
 20
-12.43926323784722
 30
0.0
 10
10.04276529947917
 20
-12.41097005208333
 30
0.0
 10
10.01045735677083
 20
-12.37757703993056
 30
0.0
 10
9.98147243923611
 20
-12.37822808159722
 30
0.0
 10
9.945882161458332
 20
-12.40938313802083
 30
0.0
 10
9.945882161458332
 20
-12.40938313802083
 30
0.0
 10
9.927164713541666
 20
-12.4307861328125
 30
0.0
 10
9.927164713541666
 20
-12.4307861328125
 30
0.0
 10
9.927164713541666
 20
-12.4307861328125
 30
0.0
 10
10.02293565538194
 20
-12.53427463107639
 30
0.0
 10
10.02293565538194
 20
-12.53427463107639
 30
0.0
 10
10.02293565538194
 20
-12.53427463107639
 30
0.0
 10
10.06757269965278
 20
-12.49546983506944
 30
0.0
 10
10.06757269965278
 20
-12.49546983506944
 30
0.0
  0
HATCH
  5
5F
330
41
100
AcDbEntity
  8
Layer 1
 62
     7
420
 16777215
100
AcDbHatch
 10
0.0
 20
0.0
 30
0.0
210
0.0
220
0.0
230
1.0
  2
SOLID
 70
     1
 71
     0
 91
        2
 92
        1
 93
        1
 72
     4
 94
        3
 73
     0
 74
     1
 95
       29
 96
       25
 40
0.0
 40
0.0
 40
0.0
 40
0.0
 40
1.0
 40
1.0
 40
1.0
 40
2.0
 40
2.0
 40
2.0
 40
3.0
 40
3.0
 40
3.0
 40
4.0
 40
4.0
 40
4.0
 40
5.0
 40
5.0
 40
5.0
 40
6.0
 40
6.0
 40
6.0
 40
7.0
 40
7.0
 40
7.0
 40
8.0
 40
8.0
 40
8.0
 40
8.0
 10
9.909925672743055
 20
-12.29184299045139
 10
9.991984049479166
 20
-12.21241590711806
 10
10.07834201388889
 20
-12.20993381076389
 10
10.15064832899306
 20
-12.28462727864583
 10
10.23552788628472
 20
-12.37232801649306
 10
10.22686089409722
 20
-12.49472384982639
 10
10.12840440538194
 20
-12.59002007378472
 10
10.12840440538194
 20
-12.59002007378472
 10
10.10068088107639
 20
-12.61686197916667
 10
10.10068088107639
 20
-12.61686197916667
 10
10.10068088107639
 20
-12.61686197916667
 10
10.20486111111111
 20
-12.71657986111111
 10
10.20486111111111
 20
-12.71657986111111
 10
10.20486111111111
 20
-12.71657986111111
 10
10.09113226996528
 20
-12.82666015625
 10
10.09113226996528
 20
-12.82666015625
 10
10.09113226996528
 20
-12.82666015625
 10
9.992730034722221
 20
-12.71367730034722
 10
9.992730034722221
 20
-12.71367730034722
 10
9.992730034722221
 20
-12.71367730034722
 10
9.736762152777777
 20
-12.46054416232639
 10
9.736762152777777
 20
-12.46054416232639
 10
9.736762152777777
 20
-12.46054416232639
 10
9.909925672743055
 20
-12.29184299045139
 10
9.909925672743055
 20
-12.29184299045139
 97
        0
 97
        0
 92
        1
 93
        1
 72
     4
 94
        3
 73
     0
 74
     1
 95
       20
 96
       16
 40
0.0
 40
0.0
 40
0.0
 40
0.0
 40
1.0
 40
1.0
 40
1.0
 40
2.0
 40
2.0
 40
2.0
 40
3.0
 40
3.0
 40
3.0
 40
4.0
 40
4.0
 40
4.0
 40
5.0
 40
5.0
 40
5.0
 40
5.0
 10
10.06757269965278
 20
-12.49546983506944
 10
10.07698567708333
 20
-12.46442328559028
 10
10.07014973958333
 20
-12.43926323784722
 10
10.04276529947917
 20
-12.41097005208333
 10
10.01045735677083
 20
-12.37757703993056
 10
9.98147243923611
 20
-12.37822808159722
 10
9.945882161458332
 20
-12.40938313802083
 10
9.945882161458332
 20
-12.40938313802083
 10
9.927164713541666
 20
-12.4307861328125
 10
9.927164713541666
 20
-12.4307861328125
 10
9.927164713541666
 20
-12.4307861328125
 10
10.02293565538194
 20
-12.53427463107639
 10
10.02293565538194
 20
-12.53427463107639
 10
10.02293565538194
 20
-12.53427463107639
 10
10.06757269965278
 20
-12.49546983506944
 10
10.06757269965278
 20
-12.49546983506944
 97
        0
 97
        0
 75
     2
 76
     1
 98
        0
  0
POLYLINE
  5
60
330
41
100
AcDbEntity
  8
Layer 1
370
     0
100
AcDb2dPolyline
 66
     1
 10
0.0
 20
0.0
 30
0.0
  0
VERTEX
  5
61
330
60
100
AcDbEntity
  8
Layer 1
370
     0
100
AcDbVertex
100
AcDb2dVertex
 10
10.77091471354167
 20
-12.10332573784722
 30
0.0
  0
VERTEX
  5
62
330
60
100
AcDbEntity
  8
Layer 1
370
     0
100
AcDbVertex
100
AcDb2dVertex
 10
10.6671142578125
 20
-12.11082628038194
 30
0.0
  0
VERTEX
  5
63
330
60
100
AcDbEntity
  8
Layer 1
370
     0
100
AcDbVertex
100
AcDb2dVertex
 10
10.65772840711806
 20
-12.1119384765625
 30
0.0
  0
VERTEX
  5
64
330
60
100
AcDbEntity
  8
Layer 1
370
     0
100
AcDbVertex
100
AcDb2dVertex
 10
10.67994520399306
 20
-12.333740234375
 30
0.0
  0
VERTEX
  5
65
330
60
100
AcDbEntity
  8
Layer 1
370
     0
100
AcDbVertex
100
AcDb2dVertex
 10
10.70559353298611
 20
-12.49727376302083
 30
0.0
  0
VERTEX
  5
66
330
60
100
AcDbEntity
  8
Layer 1
370
     0
100
AcDbVertex
100
AcDb2dVertex
 10
10.54915364583333
 20
-12.51573350694444
 30
0.0
  0
VERTEX
  5
67
330
60
100
AcDbEntity
  8
Layer 1
370
     0
100
AcDbVertex
100
AcDb2dVertex
 10
10.53944227430556
 20
-12.36619737413194
 30
0.0
  0
VERTEX
  5
68
330
60
100
AcDbEntity
  8
Layer 1
370
     0
100
AcDbVertex
100
AcDb2dVertex
 10
10.50755479600694
 20
-12.12965223524306
 30
0.0
  0
VERTEX
  5
69
330
60
100
AcDbEntity
  8
Layer 1
370
     0
100
AcDbVertex
100
AcDb2dVertex
 10
10.49739583333333
 20
-12.13084581163194
 30
0.0
  0
VERTEX
  5
6A
330
60
100
AcDbEntity
  8
Layer 1
370
     0
100
AcDbVertex
100
AcDb2dVertex
 10
10.3939208984375
 20
-12.1478271484375
 30
0.0
  0
VERTEX
  5
6B
330
60
100
AcDbEntity
  8
Layer 1
370
     0
100
AcDbVertex
100
AcDb2dVertex
 10
10.38323296440972
 20
-12.13799370659722
 30
0.0
  0
VERTEX
  5
6C
330
60
100
AcDbEntity
  8
Layer 1
370
     0
100
AcDbVertex
100
AcDb2dVertex
 10
10.37836371527778
 20
-12.02278645833333
 30
0.0
  0
VERTEX
  5
6D
330
60
100
AcDbEntity
  8
Layer 1
370
     0
100
AcDbVertex
100
AcDb2dVertex
 10
10.75614420572917
 20
-11.97817654079861
 30
0.0
  0
VERTEX
  5
6E
330
60
100
AcDbEntity
  8
Layer 1
370
     0
100
AcDbVertex
100
AcDb2dVertex
 10
10.76604546440972
 20
-11.98811848958333
 30
0.0
  0
VERTEX
  5
6F
330
60
100
AcDbEntity
  8
Layer 1
370
     0
100
AcDbVertex
100
AcDb2dVertex
 10
10.77091471354167
 20
-12.10332573784722
 30
0.0
  0
SEQEND
  5
70
330
60
100
AcDbEntity
  8
Layer 1
370
     0
  0
HATCH
  5
71
330
41
100
AcDbEntity
  8
Layer 1
 62
     7
420
 16777215
100
AcDbHatch
 10
0.0
 20
0.0
 30
0.0
210
0.0
220
0.0
230
1.0
  2
SOLID
 70
     1
 71
     0
 91
        1
 92
        1
 93
       14
 72
     1
 10
10.77091471354167
 20
-12.10332573784722
 11
10.6671142578125
 21
-12.11082628038194
 72
     1
 10
10.6671142578125
 20
-12.11082628038194
 11
10.65772840711806
 21
-12.1119384765625
 72
     1
 10
10.65772840711806
 20
-12.1119384765625
 11
10.67994520399306
 21
-12.333740234375
 72
     1
 10
10.67994520399306
 20
-12.333740234375
 11
10.70559353298611
 21
-12.49727376302083
 72
     1
 10
10.70559353298611
 20
-12.49727376302083
 11
10.54915364583333
 21
-12.51573350694444
 72
     1
 10
10.54915364583333
 20
-12.51573350694444
 11
10.53944227430556
 21
-12.36619737413194
 72
     1
 10
10.53944227430556
 20
-12.36619737413194
 11
10.50755479600694
 21
-12.12965223524306
 72
     1
 10
10.50755479600694
 20
-12.12965223524306
 11
10.49739583333333
 21
-12.13084581163194
 72
     1
 10
10.49739583333333
 20
-12.13084581163194
 11
10.3939208984375
 21
-12.1478271484375
 72
     1
 10
10.3939208984375
 20
-12.1478271484375
 11
10.38323296440972
 21
-12.13799370659722
 72
     1
 10
10.38323296440972
 20
-12.13799370659722
 11
10.37836371527778
 21
-12.02278645833333
 72
     1
 10
10.37836371527778
 20
-12.02278645833333
 11
10.75614420572917
 21
-11.97817654079861
 72
     1
 10
10.75614420572917
 20
-11.97817654079861
 11
10.76604546440972
 21
-11.98811848958333
 72
     1
 10
10.76604546440972
 20
-11.98811848958333
 11
10.77091471354167
 21
-12.10332573784722
 97
        0
 75
     2
 76
     1
 98
        0
  0
SPLINE
  5
72
330
41
100
AcDbEntity
  8
Layer 1
370
     0
100
AcDbSpline
210
0.0
220
0.0
230
1.0
 70
    11
 71
     3
 72
    41
 73
    37
 74
     0
 42
0.0000000001
 43
0.0000000001
 12
1.0
 22
0.0
 32
0.0
 13
1.0
 23
0.0
 33
0.0
 40
0.0
 40
0.0
 40
0.0
 40
0.0
 40
1.0
 40
1.0
 40
1.0
 40
2.0
 40
2.0
 40
2.0
 40
3.0
 40
3.0
 40
3.0
 40
4.0
 40
4.0
 40
4.0
 40
5.0
 40
5.0
 40
5.0
 40
6.0
 40
6.0
 40
6.0
 40
7.0
 40
7.0
 40
7.0
 40
8.0
 40
8.0
 40
8.0
 40
9.0
 40
9.0
 40
9.0
 40
10.0
 40
10.0
 40
10.0
 40
11.0
 40
11.0
 40
11.0
 40
12.0
 40
12.0
 40
12.0
 40
12.0
 10
11.34396701388889
 20
-12.57290310329861
 30
0.0
 10
11.28248426649306
 20
-12.6710205078125
 30
0.0
 10
11.1812744140625
 20
-12.68355305989583
 30
0.0
 10
11.05995008680556
 20
-12.60868326822917
 30
0.0
 10
10.94264051649306
 20
-12.53628200954861
 30
0.0
 10
10.91178385416667
 20
-12.44228786892361
 30
0.0
 10
10.97527398003472
 20
-12.34539116753472
 30
0.0
 10
10.97527398003472
 20
-12.34539116753472
 30
0.0
 10
11.0198974609375
 20
-12.27760145399306
 30
0.0
 10
11.0198974609375
 20
-12.27760145399306
 30
0.0
 10
11.0198974609375
 20
-12.27760145399306
 30
0.0
 10
11.15154351128472
 20
-12.05524359809028
 30
0.0
 10
11.15154351128472
 20
-12.05524359809028
 30
0.0
 10
11.15154351128472
 20
-12.05524359809028
 30
0.0
 10
11.28628200954861
 20
-12.13840060763889
 30
0.0
 10
11.28628200954861
 20
-12.13840060763889
 30
0.0
 10
11.28628200954861
 20
-12.13840060763889
 30
0.0
 10
11.11314561631944
 20
-12.40546332465278
 30
0.0
 10
11.11314561631944
 20
-12.40546332465278
 30
0.0
 10
11.08433702256944
 20
-12.45064290364583
 30
0.0
 10
11.089111328125
 20
-12.48042805989583
 30
0.0
 10
11.13066948784722
 20
-12.50608995225694
 30
0.0
 10
11.17289225260417
 20
-12.53213161892361
 30
0.0
 10
11.20232476128472
 20
-12.52345106336806
 30
0.0
 10
11.22977701822917
 20
-12.47745768229167
 30
0.0
 10
11.22977701822917
 20
-12.47745768229167
 30
0.0
 10
11.39085557725694
 20
-12.20290798611111
 30
0.0
 10
11.39085557725694
 20
-12.20290798611111
 30
0.0
 10
11.39085557725694
 20
-12.20290798611111
 30
0.0
 10
11.52761501736111
 20
-12.28729926215278
 30
0.0
 10
11.52761501736111
 20
-12.28729926215278
 30
0.0
 10
11.52761501736111
 20
-12.28729926215278
 30
0.0
 10
11.38724772135417
 20
-12.5042724609375
 30
0.0
 10
11.38724772135417
 20
-12.5042724609375
 30
0.0
 10
11.38724772135417
 20
-12.5042724609375
 30
0.0
 10
11.34396701388889
 20
-12.57290310329861
 30
0.0
 10
11.34396701388889
 20
-12.57290310329861
 30
0.0
  0
HATCH
  5
73
330
41
100
AcDbEntity
  8
Layer 1
 62
     7
420
 16777215
100
AcDbHatch
 10
0.0
 20
0.0
 30
0.0
210
0.0
220
0.0
230
1.0
  2
SOLID
 70
     1
 71
     0
 91
        1
 92
        1
 93
        1
 72
     4
 94
        3
 73
     0
 74
     1
 95
       41
 96
       37
 40
0.0
 40
0.0
 40
0.0
 40
0.0
 40
1.0
 40
1.0
 40
1.0
 40
2.0
 40
2.0
 40
2.0
 40
3.0
 40
3.0
 40
3.0
 40
4.0
 40
4.0
 40
4.0
 40
5.0
 40
5.0
 40
5.0
 40
6.0
 40
6.0
 40
6.0
 40
7.0
 40
7.0
 40
7.0
 40
8.0
 40
8.0
 40
8.0
 40
9.0
 40
9.0
 40
9.0
 40
10.0
 40
10.0
 40
10.0
 40
11.0
 40
11.0
 40
11.0
 40
12.0
 40
12.0
 40
12.0
 40
12.0
 10
11.34396701388889
 20
-12.57290310329861
 10
11.28248426649306
 20
-12.6710205078125
 10
11.1812744140625
 20
-12.68355305989583
 10
11.05995008680556
 20
-12.60868326822917
 10
10.94264051649306
 20
-12.53628200954861
 10
10.91178385416667
 20
-12.44228786892361
 10
10.97527398003472
 20
-12.34539116753472
 10
10.97527398003472
 20
-12.34539116753472
 10
11.0198974609375
 20
-12.27760145399306
 10
11.0198974609375
 20
-12.27760145399306
 10
11.0198974609375
 20
-12.27760145399306
 10
11.15154351128472
 20
-12.05524359809028
 10
11.15154351128472
 20
-12.05524359809028
 10
11.15154351128472
 20
-12.05524359809028
 10
11.28628200954861
 20
-12.13840060763889
 10
11.28628200954861
 20
-12.13840060763889
 10
11.28628200954861
 20
-12.13840060763889
 10
11.11314561631944
 20
-12.40546332465278
 10
11.11314561631944
 20
-12.40546332465278
 10
11.08433702256944
 20
-12.45064290364583
 10
11.089111328125
 20
-12.48042805989583
 10
11.13066948784722
 20
-12.50608995225694
 10
11.17289225260417
 20
-12.53213161892361
 10
11.20232476128472
 20
-12.52345106336806
 10
11.22977701822917
 20
-12.47745768229167
 10
11.22977701822917
 20
-12.47745768229167
 10
11.39085557725694
 20
-12.20290798611111
 10
11.39085557725694
 20
-12.20290798611111
 10
11.39085557725694
 20
-12.20290798611111
 10
11.52761501736111
 20
-12.28729926215278
 10
11.52761501736111
 20
-12.28729926215278
 10
11.52761501736111
 20
-12.28729926215278
 10
11.38724772135417
 20
-12.5042724609375
 10
11.38724772135417
 20
-12.5042724609375
 10
11.38724772135417
 20
-12.5042724609375
 10
11.34396701388889
 20
-12.57290310329861
 10
11.34396701388889
 20
-12.57290310329861
 97
        0
 97
        0
 75
     2
 76
     1
 98
        0
  0
SPLINE
  5
74
330
41
100
AcDbEntity
  8
Layer 1
370
     0
100
AcDbSpline
210
0.0
220
0.0
230
1.0
 70
    11
 71
     3
 72
    44
 73
    40
 74
     0
 42
0.0000000001
 43
0.0000000001
 12
1.0
 22
0.0
 32
0.0
 13
1.0
 23
0.0
 33
0.0
 40
0.0
 40
0.0
 40
0.0
 40
0.0
 40
1.0
 40
1.0
 40
1.0
 40
2.0
 40
2.0
 40
2.0
 40
3.0
 40
3.0
 40
3.0
 40
4.0
 40
4.0
 40
4.0
 40
5.0
 40
5.0
 40
5.0
 40
6.0
 40
6.0
 40
6.0
 40
7.0
 40
7.0
 40
7.0
 40
8.0
 40
8.0
 40
8.0
 40
9.0
 40
9.0
 40
9.0
 40
10.0
 40
10.0
 40
10.0
 40
11.0
 40
11.0
 40
11.0
 40
12.0
 40
12.0
 40
12.0
 40
13.0
 40
13.0
 40
13.0
 40
13.0
 10
11.47928873697917
 20
-13.22035047743056
 30
0.0
 10
11.47928873697917
 20
-13.22035047743056
 30
0.0
 10
11.46202256944444
 20
-13.22311740451389
 30
0.0
 10
11.46202256944444
 20
-13.22311740451389
 30
0.0
 10
11.43212890625
 20
-13.17868381076389
 30
0.0
 10
11.40703667534722
 20
-13.13114420572917
 30
0.0
 10
11.38829210069444
 20
-13.08005099826389
 30
0.0
 10
11.38829210069444
 20
-13.08005099826389
 30
0.0
 10
11.39600965711806
 20
-13.06207953559028
 30
0.0
 10
11.39600965711806
 20
-13.06207953559028
 30
0.0
 10
11.43614366319444
 20
-13.02608235677083
 30
0.0
 10
11.47677951388889
 20
-12.98909505208333
 30
0.0
 10
11.51886664496528
 20
-12.95415581597222
 30
0.0
 10
11.51886664496528
 20
-12.95415581597222
 30
0.0
 10
11.50358072916667
 20
-12.90364583333333
 30
0.0
 10
11.50358072916667
 20
-12.90364583333333
 30
0.0
 10
11.50358072916667
 20
-12.90364583333333
 30
0.0
 10
11.35970052083333
 20
-12.95294867621528
 30
0.0
 10
11.35970052083333
 20
-12.95294867621528
 30
0.0
 10
11.35970052083333
 20
-12.95294867621528
 30
0.0
 10
11.31385633680556
 20
-12.80143229166667
 30
0.0
 10
11.31385633680556
 20
-12.80143229166667
 30
0.0
 10
11.31385633680556
 20
-12.80143229166667
 30
0.0
 10
11.4593505859375
 20
-12.76563856336806
 30
0.0
 10
11.4593505859375
 20
-12.76563856336806
 30
0.0
 10
11.4593505859375
 20
-12.76563856336806
 30
0.0
 10
11.80154079861111
 20
-12.65386284722222
 30
0.0
 10
11.80154079861111
 20
-12.65386284722222
 30
0.0
 10
11.80154079861111
 20
-12.65386284722222
 30
0.0
 10
11.872314453125
 20
-12.88503689236111
 30
0.0
 10
11.872314453125
 20
-12.88503689236111
 30
0.0
 10
11.90538194444444
 20
-12.99433051215278
 30
0.0
 10
11.87057834201389
 20
-13.07233344184028
 30
0.0
 10
11.77332899305556
 20
-13.10176595052083
 30
0.0
 10
11.71605088975694
 20
-13.11909993489583
 30
0.0
 10
11.6549072265625
 20
-13.10468207465278
 30
0.0
 10
11.60321723090278
 20
-13.06437174479167
 30
0.0
 10
11.56072319878472
 20
-13.1142578125
 30
0.0
 10
11.51890733506944
 20
-13.16642252604167
 30
0.0
 10
11.47928873697917
 20
-13.22035047743056
 30
0.0
  0
SPLINE
  5
75
330
41
100
AcDbEntity
  8
Layer 1
370
     0
100
AcDbSpline
210
0.0
220
0.0
230
1.0
 70
    11
 71
     3
 72
    20
 73
    16
 74
     0
 42
0.0000000001
 43
0.0000000001
 12
1.0
 22
0.0
 32
0.0
 13
1.0
 23
0.0
 33
0.0
 40
0.0
 40
0.0
 40
0.0
 40
0.0
 40
1.0
 40
1.0
 40
1.0
 40
2.0
 40
2.0
 40
2.0
 40
3.0
 40
3.0
 40
3.0
 40
4.0
 40
4.0
 40
4.0
 40
5.0
 40
5.0
 40
5.0
 40
5.0
 10
11.7513427734375
 20
-12.86324055989583
 30
0.0
 10
11.7513427734375
 20
-12.86324055989583
 30
0.0
 10
11.74087185329861
 20
-12.83677842881944
 30
0.0
 10
11.74087185329861
 20
-12.83677842881944
 30
0.0
 10
11.74087185329861
 20
-12.83677842881944
 30
0.0
 10
11.61408148871528
 20
-12.87185329861111
 30
0.0
 10
11.61408148871528
 20
-12.87185329861111
 30
0.0
 10
11.61408148871528
 20
-12.87185329861111
 30
0.0
 10
11.62771267361111
 20
-12.92778862847222
 30
0.0
 10
11.62771267361111
 20
-12.92778862847222
 30
0.0
 10
11.64919704861111
 20
-12.95256890190972
 30
0.0
 10
11.6739501953125
 20
-12.95822482638889
 30
0.0
 10
11.71013726128472
 20
-12.94727918836806
 30
0.0
 10
11.75084092881944
 20
-12.93496365017361
 30
0.0
 10
11.76299370659722
 20
-12.90988498263889
 30
0.0
 10
11.7513427734375
 20
-12.86324055989583
 30
0.0
  0
HATCH
  5
76
330
41
100
AcDbEntity
  8
Layer 1
 62
     7
420
 16777215
100
AcDbHatch
 10
0.0
 20
0.0
 30
0.0
210
0.0
220
0.0
230
1.0
  2
SOLID
 70
     1
 71
     0
 91
        2
 92
        1
 93
        1
 72
     4
 94
        3
 73
     0
 74
     1
 95
       44
 96
       40
 40
0.0
 40
0.0
 40
0.0
 40
0.0
 40
1.0
 40
1.0
 40
1.0
 40
2.0
 40
2.0
 40
2.0
 40
3.0
 40
3.0
 40
3.0
 40
4.0
 40
4.0
 40
4.0
 40
5.0
 40
5.0
 40
5.0
 40
6.0
 40
6.0
 40
6.0
 40
7.0
 40
7.0
 40
7.0
 40
8.0
 40
8.0
 40
8.0
 40
9.0
 40
9.0
 40
9.0
 40
10.0
 40
10.0
 40
10.0
 40
11.0
 40
11.0
 40
11.0
 40
12.0
 40
12.0
 40
12.0
 40
13.0
 40
13.0
 40
13.0
 40
13.0
 10
11.47928873697917
 20
-13.22035047743056
 10
11.47928873697917
 20
-13.22035047743056
 10
11.46202256944444
 20
-13.22311740451389
 10
11.46202256944444
 20
-13.22311740451389
 10
11.43212890625
 20
-13.17868381076389
 10
11.40703667534722
 20
-13.13114420572917
 10
11.38829210069444
 20
-13.08005099826389
 10
11.38829210069444
 20
-13.08005099826389
 10
11.39600965711806
 20
-13.06207953559028
 10
11.39600965711806
 20
-13.06207953559028
 10
11.43614366319444
 20
-13.02608235677083
 10
11.47677951388889
 20
-12.98909505208333
 10
11.51886664496528
 20
-12.95415581597222
 10
11.51886664496528
 20
-12.95415581597222
 10
11.50358072916667
 20
-12.90364583333333
 10
11.50358072916667
 20
-12.90364583333333
 10
11.50358072916667
 20
-12.90364583333333
 10
11.35970052083333
 20
-12.95294867621528
 10
11.35970052083333
 20
-12.95294867621528
 10
11.35970052083333
 20
-12.95294867621528
 10
11.31385633680556
 20
-12.80143229166667
 10
11.31385633680556
 20
-12.80143229166667
 10
11.31385633680556
 20
-12.80143229166667
 10
11.4593505859375
 20
-12.76563856336806
 10
11.4593505859375
 20
-12.76563856336806
 10
11.4593505859375
 20
-12.76563856336806
 10
11.80154079861111
 20
-12.65386284722222
 10
11.80154079861111
 20
-12.65386284722222
 10
11.80154079861111
 20
-12.65386284722222
 10
11.872314453125
 20
-12.88503689236111
 10
11.872314453125
 20
-12.88503689236111
 10
11.90538194444444
 20
-12.99433051215278
 10
11.87057834201389
 20
-13.07233344184028
 10
11.77332899305556
 20
-13.10176595052083
 10
11.71605088975694
 20
-13.11909993489583
 10
11.6549072265625
 20
-13.10468207465278
 10
11.60321723090278
 20
-13.06437174479167
 10
11.56072319878472
 20
-13.1142578125
 10
11.51890733506944
 20
-13.16642252604167
 10
11.47928873697917
 20
-13.22035047743056
 97
        0
 97
        0
 92
        1
 93
        1
 72
     4
 94
        3
 73
     0
 74
     1
 95
       20
 96
       16
 40
0.0
 40
0.0
 40
0.0
 40
0.0
 40
1.0
 40
1.0
 40
1.0
 40
2.0
 40
2.0
 40
2.0
 40
3.0
 40
3.0
 40
3.0
 40
4.0
 40
4.0
 40
4.0
 40
5.0
 40
5.0
 40
5.0
 40
5.0
 10
11.7513427734375
 20
-12.86324055989583
 10
11.7513427734375
 20
-12.86324055989583
 10
11.74087185329861
 20
-12.83677842881944
 10
11.74087185329861
 20
-12.83677842881944
 10
11.74087185329861
 20
-12.83677842881944
 10
11.61408148871528
 20
-12.87185329861111
 10
11.61408148871528
 20
-12.87185329861111
 10
11.61408148871528
 20
-12.87185329861111
 10
11.62771267361111
 20
-12.92778862847222
 10
11.62771267361111
 20
-12.92778862847222
 10
11.64919704861111
 20
-12.95256890190972
 10
11.6739501953125
 20
-12.95822482638889
 10
11.71013726128472
 20
-12.94727918836806
 10
11.75084092881944
 20
-12.93496365017361
 10
11.76299370659722
 20
-12.90988498263889
 10
11.7513427734375
 20
-12.86324055989583
 97
        0
 97
        0
 75
     2
 76
     1
 98
        0
  0
POLYLINE
  5
77
330
41
100
AcDbEntity
  8
Layer 1
370
     0
100
AcDb2dPolyline
 66
     1
 10
0.0
 20
0.0
 30
0.0
  0
VERTEX
  5
78
330
77
100
AcDbEntity
  8
Layer 1
370
     0
100
AcDbVertex
100
AcDb2dVertex
 10
11.386474609375
 20
-13.68154568142361
 30
0.0
  0
VERTEX
  5
79
330
77
100
AcDbEntity
  8
Layer 1
370
     0
100
AcDbVertex
100
AcDb2dVertex
 10
11.28297254774306
 20
-13.63060167100694
 30
0.0
  0
VERTEX
  5
7A
330
77
100
AcDbEntity
  8
Layer 1
370
     0
100
AcDbVertex
100
AcDb2dVertex
 10
11.41468641493056
 20
-13.2965087890625
 30
0.0
  0
VERTEX
  5
7B
330
77
100
AcDbEntity
  8
Layer 1
370
     0
100
AcDbVertex
100
AcDb2dVertex
 10
11.55099826388889
 20
-13.35871039496528
 30
0.0
  0
VERTEX
  5
7C
330
77
100
AcDbEntity
  8
Layer 1
370
     0
100
AcDbVertex
100
AcDb2dVertex
 10
11.88871256510417
 20
-13.48338487413194
 30
0.0
  0
VERTEX
  5
7D
330
77
100
AcDbEntity
  8
Layer 1
370
     0
100
AcDbVertex
100
AcDb2dVertex
 10
11.75469292534722
 20
-13.82333713107639
 30
0.0
  0
VERTEX
  5
7E
330
77
100
AcDbEntity
  8
Layer 1
370
     0
100
AcDbVertex
100
AcDb2dVertex
 10
11.74126519097222
 20
-13.82736545138889
 30
0.0
  0
VERTEX
  5
7F
330
77
100
AcDbEntity
  8
Layer 1
370
     0
100
AcDbVertex
100
AcDb2dVertex
 10
11.63804796006944
 20
-13.77566189236111
 30
0.0
  0
VERTEX
  5
80
330
77
100
AcDbEntity
  8
Layer 1
370
     0
100
AcDbVertex
100
AcDb2dVertex
 10
11.68836805555556
 20
-13.66090223524306
 30
0.0
  0
VERTEX
  5
81
330
77
100
AcDbEntity
  8
Layer 1
370
     0
100
AcDbVertex
100
AcDb2dVertex
 10
11.71811252170139
 20
-13.58543565538194
 30
0.0
  0
VERTEX
  5
82
330
77
100
AcDbEntity
  8
Layer 1
370
     0
100
AcDbVertex
100
AcDb2dVertex
 10
11.65201822916667
 20
-13.55768500434028
 30
0.0
  0
VERTEX
  5
83
330
77
100
AcDbEntity
  8
Layer 1
370
     0
100
AcDbVertex
100
AcDb2dVertex
 10
11.62342664930556
 20
-13.63020833333333
 30
0.0
  0
VERTEX
  5
84
330
77
100
AcDbEntity
  8
Layer 1
370
     0
100
AcDbVertex
100
AcDb2dVertex
 10
11.5955810546875
 20
-13.707275390625
 30
0.0
  0
VERTEX
  5
85
330
77
100
AcDbEntity
  8
Layer 1
370
     0
100
AcDbVertex
100
AcDb2dVertex
 10
11.5821533203125
 20
-13.7113037109375
 30
0.0
  0
VERTEX
  5
86
330
77
100
AcDbEntity
  8
Layer 1
370
     0
100
AcDbVertex
100
AcDb2dVertex
 10
11.47865125868056
 20
-13.66033257378472
 30
0.0
  0
VERTEX
  5
87
330
77
100
AcDbEntity
  8
Layer 1
370
     0
100
AcDbVertex
100
AcDb2dVertex
 10
11.51435004340278
 20
-13.57621256510417
 30
0.0
  0
VERTEX
  5
88
330
77
100
AcDbEntity
  8
Layer 1
370
     0
100
AcDbVertex
100
AcDb2dVertex
 10
11.54035101996528
 20
-13.51026746961806
 30
0.0
  0
VERTEX
  5
89
330
77
100
AcDbEntity
  8
Layer 1
370
     0
100
AcDbVertex
100
AcDb2dVertex
 10
11.51279025607639
 20
-13.49856228298611
 30
0.0
  0
VERTEX
  5
8A
330
77
100
AcDbEntity
  8
Layer 1
370
     0
100
AcDbVertex
100
AcDb2dVertex
 10
11.47119140625
 20
-13.48385959201389
 30
0.0
  0
VERTEX
  5
8B
330
77
100
AcDbEntity
  8
Layer 1
370
     0
100
AcDbVertex
100
AcDb2dVertex
 10
11.44346788194444
 20
-13.55418565538194
 30
0.0
  0
VERTEX
  5
8C
330
77
100
AcDbEntity
  8
Layer 1
370
     0
100
AcDbVertex
100
AcDb2dVertex
 10
11.39990234375
 20
-13.67754448784722
 30
0.0
  0
VERTEX
  5
8D
330
77
100
AcDbEntity
  8
Layer 1
370
     0
100
AcDbVertex
100
AcDb2dVertex
 10
11.386474609375
 20
-13.68154568142361
 30
0.0
  0
SEQEND
  5
8E
330
77
100
AcDbEntity
  8
Layer 1
370
     0
  0
HATCH
  5
8F
330
41
100
AcDbEntity
  8
Layer 1
 62
     7
420
 16777215
100
AcDbHatch
 10
0.0
 20
0.0
 30
0.0
210
0.0
220
0.0
230
1.0
  2
SOLID
 70
     1
 71
     0
 91
        1
 92
        1
 93
       21
 72
     1
 10
11.386474609375
 20
-13.68154568142361
 11
11.28297254774306
 21
-13.63060167100694
 72
     1
 10
11.28297254774306
 20
-13.63060167100694
 11
11.41468641493056
 21
-13.2965087890625
 72
     1
 10
11.41468641493056
 20
-13.2965087890625
 11
11.55099826388889
 21
-13.35871039496528
 72
     1
 10
11.55099826388889
 20
-13.35871039496528
 11
11.88871256510417
 21
-13.48338487413194
 72
     1
 10
11.88871256510417
 20
-13.48338487413194
 11
11.75469292534722
 21
-13.82333713107639
 72
     1
 10
11.75469292534722
 20
-13.82333713107639
 11
11.74126519097222
 21
-13.82736545138889
 72
     1
 10
11.74126519097222
 20
-13.82736545138889
 11
11.63804796006944
 21
-13.77566189236111
 72
     1
 10
11.63804796006944
 20
-13.77566189236111
 11
11.68836805555556
 21
-13.66090223524306
 72
     1
 10
11.68836805555556
 20
-13.66090223524306
 11
11.71811252170139
 21
-13.58543565538194
 72
     1
 10
11.71811252170139
 20
-13.58543565538194
 11
11.65201822916667
 21
-13.55768500434028
 72
     1
 10
11.65201822916667
 20
-13.55768500434028
 11
11.62342664930556
 21
-13.63020833333333
 72
     1
 10
11.62342664930556
 20
-13.63020833333333
 11
11.5955810546875
 21
-13.707275390625
 72
     1
 10
11.5955810546875
 20
-13.707275390625
 11
11.5821533203125
 21
-13.7113037109375
 72
     1
 10
11.5821533203125
 20
-13.7113037109375
 11
11.47865125868056
 21
-13.66033257378472
 72
     1
 10
11.47865125868056
 20
-13.66033257378472
 11
11.51435004340278
 21
-13.57621256510417
 72
     1
 10
11.51435004340278
 20
-13.57621256510417
 11
11.54035101996528
 21
-13.51026746961806
 72
     1
 10
11.54035101996528
 20
-13.51026746961806
 11
11.51279025607639
 21
-13.49856228298611
 72
     1
 10
11.51279025607639
 20
-13.49856228298611
 11
11.47119140625
 21
-13.48385959201389
 72
     1
 10
11.47119140625
 20
-13.48385959201389
 11
11.44346788194444
 21
-13.55418565538194
 72
     1
 10
11.44346788194444
 20
-13.55418565538194
 11
11.39990234375
 21
-13.67754448784722
 72
     1
 10
11.39990234375
 20
-13.67754448784722
 11
11.386474609375
 21
-13.68154568142361
 97
        0
 75
     2
 76
     1
 98
        0
  0
ENDBLK
  5
44
330
41
100
AcDbEntity
  8
0
100
AcDbBlockEnd
  0
ENDSEC
  0
SECTION
  2
ENTITIES
  0
INSERT
  5
42
330
1F
100
AcDbEntity
  8
Layer 1
100
AcDbBlockReference
  2
block 2
 10
0.0
 20
0.0
 30
0.0
  0
ENDSEC
  0
SECTION
  2
OBJECTS
  0
DICTIONARY
  5
C
330
0
100
AcDbDictionary
281
     1
  3
ACAD_GROUP
350
D
  3
ACAD_LAYOUT
350
1A
  3
ACAD_MATERIAL
350
3B
  3
ACAD_MLEADERSTYLE
350
91
  3
ACAD_MLINESTYLE
350
17
  3
ACAD_PLOTSETTINGS
350
19
  3
ACAD_PLOTSTYLENAME
350
E
  3
ACAD_TABLESTYLE
350
90
  3
ACAD_VISUALSTYLE
350
2A
  0
SUN
  5
3F
330
29
100
AcDbSun
 90
        1
290
     0
 63
     7
421
 16777215
 40
1.0
291
     1
 91
  2455826
 92
 54000000
292
     0
 70
     2
 71
   256
280
     1
  0
DICTIONARY
  5
D
102
{ACAD_REACTORS
330
C
102
}
330
C
100
AcDbDictionary
281
     1
  0
DICTIONARY
  5
1A
102
{ACAD_REACTORS
330
C
102
}
330
C
100
AcDbDictionary
281
     1
  3
Layout1
350
1E
  3
Layout2
350
26
  3
Model
350
22
  0
DICTIONARY
  5
3B
102
{ACAD_REACTORS
330
C
102
}
330
C
100
AcDbDictionary
281
     1
  3
ByBlock
350
3D
  3
ByLayer
350
3C
  3
Global
350
3E
  0
DICTIONARY
  5
91
102
{ACAD_REACTORS
330
C
102
}
330
C
100
AcDbDictionary
281
     1
  0
DICTIONARY
  5
17
102
{ACAD_REACTORS
330
C
102
}
330
C
100
AcDbDictionary
281
     1
  3
Standard
350
18
  0
DICTIONARY
  5
19
102
{ACAD_REACTORS
330
C
102
}
330
C
100
AcDbDictionary
281
     1
  0
ACDBDICTIONARYWDFLT
  5
E
102
{ACAD_REACTORS
330
C
102
}
330
C
100
AcDbDictionary
281
     1
  3
Normal
350
F
100
AcDbDictionaryWithDefault
340
F
  0
DICTIONARY
  5
90
102
{ACAD_REACTORS
330
C
102
}
330
C
100
AcDbDictionary
281
     1
  0
DICTIONARY
  5
2A
102
{ACAD_REACTORS
330
C
102
}
330
C
100
AcDbDictionary
281
     1
  3
2dWireframe
350
2F
  3
3D Hidden
350
31
  3
3dWireframe
350
30
  3
Basic
350
32
  3
Brighten
350
36
  3
ColorChange
350
3A
  3
Conceptual
350
34
  3
Dim
350
35
  3
Facepattern
350
39
  3
Flat
350
2B
  3
FlatWithEdges
350
2C
  3
Gouraud
350
2D
  3
GouraudWithEdges
350
2E
  3
Linepattern
350
38
  3
Realistic
350
33
  3
Thicken
350
37
  0
LAYOUT
  5
1E
102
{ACAD_REACTORS
330
1A
102
}
330
1A
100
AcDbPlotSettings
  1

  2
none_device
  4

  6

 40
0.0
 41
0.0
 42
0.0
 43
0.0
 44
0.0
 45
0.0
 46
0.0
 47
0.0
 48
0.0
 49
0.0
140
0.0
141
0.0
142
1.0
143
1.0
 70
   688
 72
     0
 73
     0
 74
     5
  7

 75
    16
 76
     0
 77
     2
 78
   300
147
1.0
148
0.0
149
0.0
100
AcDbLayout
  1
Layout1
 70
     1
 71
     1
 10
0.0
 20
0.0
 11
12.0
 21
9.0
 12
0.0
 22
0.0
 32
0.0
 14
1.000000000000000E+20
 24
1.000000000000000E+20
 34
1.000000000000000E+20
 15
-1.000000000000000E+20
 25
-1.000000000000000E+20
 35
-1.000000000000000E+20
146
0.0
 13
0.0
 23
0.0
 33
0.0
 16
1.0
 26
0.0
 36
0.0
 17
0.0
 27
1.0
 37
0.0
 76
     0
330
1B
  0
LAYOUT
  5
26
102
{ACAD_REACTORS
330
1A
102
}
330
1A
100
AcDbPlotSettings
  1

  2
none_device
  4

  6

 40
0.0
 41
0.0
 42
0.0
 43
0.0
 44
0.0
 45
0.0
 46
0.0
 47
0.0
 48
0.0
 49
0.0
140
0.0
141
0.0
142
1.0
143
1.0
 70
   688
 72
     0
 73
     0
 74
     5
  7

 75
    16
 76
     0
 77
     2
 78
   300
147
1.0
148
0.0
149
0.0
100
AcDbLayout
  1
Layout2
 70
     1
 71
     2
 10
0.0
 20
0.0
 11
0.0
 21
0.0
 12
0.0
 22
0.0
 32
0.0
 14
0.0
 24
0.0
 34
0.0
 15
0.0
 25
0.0
 35
0.0
146
0.0
 13
0.0
 23
0.0
 33
0.0
 16
1.0
 26
0.0
 36
0.0
 17
0.0
 27
1.0
 37
0.0
 76
     0
330
23
  0
LAYOUT
  5
22
102
{ACAD_REACTORS
330
1A
102
}
330
1A
100
AcDbPlotSettings
  1

  2
none_device
  4

  6

 40
0.0
 41
0.0
 42
0.0
 43
0.0
 44
0.0
 45
0.0
 46
0.0
 47
0.0
 48
0.0
 49
0.0
140
0.0
141
0.0
142
1.0
143
1.0
 70
  1712
 72
     0
 73
     0
 74
     0
  7

 75
     0
 76
     0
 77
     2
 78
   300
147
1.0
148
0.0
149
0.0
100
AcDbLayout
  1
Model
 70
     1
 71
     0
 10
0.0
 20
0.0
 11
12.0
 21
9.0
 12
0.0
 22
0.0
 32
0.0
 14
1.000000000000000E+20
 24
1.000000000000000E+20
 34
1.000000000000000E+20
 15
-1.000000000000000E+20
 25
-1.000000000000000E+20
 35
-1.000000000000000E+20
146
0.0
 13
0.0
 23
0.0
 33
0.0
 16
1.0
 26
0.0
 36
0.0
 17
0.0
 27
1.0
 37
0.0
 76
     0
330
1F
331
29
  0
MATERIAL
  5
3D
102
{ACAD_REACTORS
330
3B
102
}
330
3B
100
AcDbMaterial
  1
ByBlock
 72
     1
 94
      127
  0
MATERIAL
  5
3C
102
{ACAD_REACTORS
330
3B
102
}
330
3B
100
AcDbMaterial
  1
ByLayer
 72
     1
 94
      127
  0
MATERIAL
  5
3E
102
{ACAD_REACTORS
330
3B
102
}
330
3B
100
AcDbMaterial
  1
Global
 72
     1
 94
      127
  0
MLINESTYLE
  5
18
102
{ACAD_REACTORS
330
17
102
}
330
17
100
AcDbMlineStyle
  2
Standard
 70
     0
  3

 62
   256
 51
90.0
 52
90.0
 71
     2
 49
0.5
 62
   256
  6
BYLAYER
 49
-0.5
 62
   256
  6
BYLAYER
  0
ACDBPLACEHOLDER
  5
F
102
{ACAD_REACTORS
330
E
102
}
330
E
  0
VISUALSTYLE
  5
2F
102
{ACAD_REACTORS
330
2A
102
}
330
2A
100
AcDbVisualStyle
  2
2dWireframe
 70
     4
177
     2
291
     0
 71
     0
176
     1
 72
     2
176
     1
 73
     0
176
     1
 90
        0
176
     1
 40
-0.6
176
     1
 41
-30.0
176
     1
 62
     5
 63
     7
421
 16777215
176
     1
 74
     1
176
     1
 91
        4
176
     1
 64
     7
176
     1
 65
   257
176
     1
 75
     1
176
     1
175
     1
176
     1
 42
1.0
176
     1
 92
        0
176
     1
 66
   257
176
     1
 43
1.0
176
     1
 76
     1
176
     1
 77
     6
176
     1
 78
     2
176
     1
 67
     7
176
     1
 79
     5
176
     1
170
     0
176
     1
171
     0
176
     1
290
     0
176
     1
 93
        1
176
     1
 44
0.0
176
     1
173
     0
176
     1
  0
VISUALSTYLE
  5
31
102
{ACAD_REACTORS
330
2A
102
}
330
2A
100
AcDbVisualStyle
  2
3D Hidden
 70
     6
177
     2
291
     0
 71
     1
176
     1
 72
     2
176
     1
 73
     2
176
     1
 90
        0
176
     1
 40
-0.6
176
     1
 41
-30.0
176
     1
 62
     5
 63
     7
421
 16777215
176
     1
 74
     2
176
     1
 91
        2
176
     1
 64
     7
176
     1
 65
   257
176
     1
 75
     2
176
     1
175
     1
176
     1
 42
40.0
176
     1
 92
        0
176
     1
 66
   257
176
     1
 43
1.0
176
     1
 76
     1
176
     1
 77
     6
176
     1
 78
     2
176
     1
 67
     7
176
     1
 79
     3
176
     1
170
     0
176
     1
171
     0
176
     1
290
     0
176
     1
 93
        1
176
     1
 44
0.0
176
     1
173
     0
176
     1
  0
VISUALSTYLE
  5
30
102
{ACAD_REACTORS
330
2A
102
}
330
2A
100
AcDbVisualStyle
  2
3dWireframe
 70
     5
177
     2
291
     0
 71
     0
176
     1
 72
     2
176
     1
 73
     0
176
     1
 90
        0
176
     1
 40
-0.6
176
     1
 41
-30.0
176
     1
 62
     5
 63
     7
421
 16777215
176
     1
 74
     1
176
     1
 91
        4
176
     1
 64
     7
176
     1
 65
   257
176
     1
 75
     1
176
     1
175
     1
176
     1
 42
1.0
176
     1
 92
        0
176
     1
 66
   257
176
     1
 43
1.0
176
     1
 76
     1
176
     1
 77
     6
176
     1
 78
     2
176
     1
 67
     7
176
     1
 79
     5
176
     1
170
     0
176
     1
171
     0
176
     1
290
     0
176
     1
 93
        1
176
     1
 44
0.0
176
     1
173
     0
176
     1
  0
VISUALSTYLE
  5
32
102
{ACAD_REACTORS
330
2A
102
}
330
2A
100
AcDbVisualStyle
  2
Basic
 70
     7
177
     2
291
     1
 71
     1
176
     1
 72
     0
176
     1
 73
     1
176
     1
 90
        0
176
     1
 40
-0.6
176
     1
 41
-30.0
176
     1
 62
     5
 63
     7
421
 16777215
176
     1
 74
     0
176
     1
 91
        4
176
     1
 64
     7
176
     1
 65
   257
176
     1
 75
     1
176
     1
175
     1
176
     1
 42
1.0
176
     1
 92
        8
176
     1
 66
     7
176
     1
 43
1.0
176
     1
 76
     1
176
     1
 77
     6
176
     1
 78
     2
176
     1
 67
     7
176
     1
 79
     5
176
     1
170
     0
176
     1
171
     0
176
     1
290
     0
176
     1
 93
        1
176
     1
 44
0.0
176
     1
173
     0
176
     1
  0
VISUALSTYLE
  5
36
102
{ACAD_REACTORS
330
2A
102
}
330
2A
100
AcDbVisualStyle
  2
Brighten
 70
    12
177
     2
291
     1
 71
     2
176
     1
 72
     2
176
     1
 73
     0
176
     1
 90
        0
176
     1
 40
-0.6
176
     1
 41
-30.0
176
     1
 62
     5
 63
     7
421
 16777215
176
     1
 74
     1
176
     1
 91
        4
176
     1
 64
     7
176
     1
 65
   257
176
     1
 75
     1
176
     1
175
     1
176
     1
 42
1.0
176
     1
 92
        8
176
     1
 66
     7
176
     1
 43
1.0
176
     1
 76
     1
176
     1
 77
     6
176
     1
 78
     2
176
     1
 67
     7
176
     1
 79
     5
176
     1
170
     0
176
     1
171
     0
176
     1
290
     0
176
     1
 93
        1
176
     1
 44
50.0
176
     1
173
     0
176
     1
  0
VISUALSTYLE
  5
3A
102
{ACAD_REACTORS
330
2A
102
}
330
2A
100
AcDbVisualStyle
  2
ColorChange
 70
    16
177
     2
291
     1
 71
     2
176
     1
 72
     2
176
     1
 73
     3
176
     1
 90
        0
176
     1
 40
-0.6
176
     1
 41
-30.0
176
     1
 62
     5
 63
     8
421
  8421504
176
     1
 74
     1
176
     1
 91
        4
176
     1
 64
     7
176
     1
 65
   257
176
     1
 75
     1
176
     1
175
     1
176
     1
 42
1.0
176
     1
 92
        8
176
     1
 66
     8
424
  8421504
176
     1
 43
1.0
176
     1
 76
     1
176
     1
 77
     6
176
     1
 78
     2
176
     1
 67
     7
176
     1
 79
     5
176
     1
170
     0
176
     1
171
     0
176
     1
290
     0
176
     1
 93
        1
176
     1
 44
0.0
176
     1
173
     0
176
     1
  0
VISUALSTYLE
  5
34
102
{ACAD_REACTORS
330
2A
102
}
330
2A
100
AcDbVisualStyle
  2
Conceptual
 70
     9
177
     2
291
     0
 71
     3
176
     1
 72
     2
176
     1
 73
     0
176
     1
 90
        0
176
     1
 40
-0.6
176
     1
 41
-30.0
176
     1
 62
     5
 63
     7
421
 16777215
176
     1
 74
     2
176
     1
 91
        2
176
     1
 64
     7
176
     1
 65
   257
176
     1
 75
     1
176
     1
175
     1
176
     1
 42
40.0
176
     1
 92
        8
176
     1
 66
     7
176
     1
 43
1.0
176
     1
 76
     1
176
     1
 77
     6
176
     1
 78
     2
176
     1
 67
     7
176
     1
 79
     3
176
     1
170
     0
176
     1
171
     0
176
     1
290
     0
176
     1
 93
        1
176
     1
 44
0.0
176
     1
173
     0
176
     1
  0
VISUALSTYLE
  5
35
102
{ACAD_REACTORS
330
2A
102
}
330
2A
100
AcDbVisualStyle
  2
Dim
 70
    11
177
     2
291
     1
 71
     2
176
     1
 72
     2
176
     1
 73
     0
176
     1
 90
        0
176
     1
 40
-0.6
176
     1
 41
-30.0
176
     1
 62
     5
 63
     7
421
 16777215
176
     1
 74
     1
176
     1
 91
        4
176
     1
 64
     7
176
     1
 65
   257
176
     1
 75
     1
176
     1
175
     1
176
     1
 42
1.0
176
     1
 92
        8
176
     1
 66
     7
176
     1
 43
1.0
176
     1
 76
     1
176
     1
 77
     6
176
     1
 78
     2
176
     1
 67
     7
176
     1
 79
     5
176
     1
170
     0
176
     1
171
     0
176
     1
290
     0
176
     1
 93
        1
176
     1
 44
-50.0
176
     1
173
     0
176
     1
  0
VISUALSTYLE
  5
39
102
{ACAD_REACTORS
330
2A
102
}
330
2A
100
AcDbVisualStyle
  2
Facepattern
 70
    15
177
     2
291
     1
 71
     2
176
     1
 72
     2
176
     1
 73
     0
176
     1
 90
        0
176
     1
 40
-0.6
176
     1
 41
-30.0
176
     1
 62
     5
 63
     7
421
 16777215
176
     1
 74
     1
176
     1
 91
        4
176
     1
 64
     7
176
     1
 65
   257
176
     1
 75
     1
176
     1
175
     1
176
     1
 42
1.0
176
     1
 92
        8
176
     1
 66
     7
176
     1
 43
1.0
176
     1
 76
     1
176
     1
 77
     6
176
     1
 78
     2
176
     1
 67
     7
176
     1
 79
     5
176
     1
170
     0
176
     1
171
     0
176
     1
290
     0
176
     1
 93
        1
176
     1
 44
0.0
176
     1
173
     0
176
     1
  0
VISUALSTYLE
  5
2B
102
{ACAD_REACTORS
330
2A
102
}
330
2A
100
AcDbVisualStyle
  2
Flat
 70
     0
177
     2
291
     1
 71
     2
176
     1
 72
     1
176
     1
 73
     1
176
     1
 90
        2
176
     1
 40
-0.6
176
     1
 41
30.0
176
     1
 62
     5
 63
     7
421
 16777215
176
     1
 74
     0
176
     1
 91
        4
176
     1
 64
     7
176
     1
 65
   257
176
     1
 75
     1
176
     1
175
     1
176
     1
 42
1.0
176
     1
 92
        8
176
     1
 66
     7
176
     1
 43
1.0
176
     1
 76
     1
176
     1
 77
     6
176
     1
 78
     2
176
     1
 67
     7
176
     1
 79
     5
176
     1
170
     0
176
     1
171
     0
176
     1
290
     0
176
     1
 93
       13
176
     1
 44
0.0
176
     1
173
     0
176
     1
  0
VISUALSTYLE
  5
2C
102
{ACAD_REACTORS
330
2A
102
}
330
2A
100
AcDbVisualStyle
  2
FlatWithEdges
 70
     1
177
     2
291
     1
 71
     2
176
     1
 72
     1
176
     1
 73
     1
176
     1
 90
        2
176
     1
 40
-0.6
176
     1
 41
30.0
176
     1
 62
     5
 63
     7
421
 16777215
176
     1
 74
     1
176
     1
 91
        4
176
     1
 64
     7
176
     1
 65
   257
176
     1
 75
     1
176
     1
175
     1
176
     1
 42
1.0
176
     1
 92
        0
176
     1
 66
   257
176
     1
 43
1.0
176
     1
 76
     1
176
     1
 77
     6
176
     1
 78
     2
176
     1
 67
     7
176
     1
 79
     5
176
     1
170
     0
176
     1
171
     0
176
     1
290
     0
176
     1
 93
       13
176
     1
 44
0.0
176
     1
173
     0
176
     1
  0
VISUALSTYLE
  5
2D
102
{ACAD_REACTORS
330
2A
102
}
330
2A
100
AcDbVisualStyle
  2
Gouraud
 70
     2
177
     2
291
     1
 71
     2
176
     1
 72
     2
176
     1
 73
     1
176
     1
 90
        2
176
     1
 40
-0.6
176
     1
 41
30.0
176
     1
 62
     5
 63
     7
421
 16777215
176
     1
 74
     0
176
     1
 91
        4
176
     1
 64
     7
176
     1
 65
   257
176
     1
 75
     1
176
     1
175
     1
176
     1
 42
1.0
176
     1
 92
        0
176
     1
 66
     7
176
     1
 43
1.0
176
     1
 76
     1
176
     1
 77
     6
176
     1
 78
     2
176
     1
 67
     7
176
     1
 79
     5
176
     1
170
     0
176
     1
171
     0
176
     1
290
     0
176
     1
 93
       13
176
     1
 44
0.0
176
     1
173
     0
176
     1
  0
VISUALSTYLE
  5
2E
102
{ACAD_REACTORS
330
2A
102
}
330
2A
100
AcDbVisualStyle
  2
GouraudWithEdges
 70
     3
177
     2
291
     1
 71
     2
176
     1
 72
     2
176
     1
 73
     1
176
     1
 90
        2
176
     1
 40
-0.6
176
     1
 41
30.0
176
     1
 62
     5
 63
     7
421
 16777215
176
     1
 74
     1
176
     1
 91
        4
176
     1
 64
     7
176
     1
 65
   257
176
     1
 75
     1
176
     1
175
     1
176
     1
 42
1.0
176
     1
 92
        0
176
     1
 66
   257
176
     1
 43
1.0
176
     1
 76
     1
176
     1
 77
     6
176
     1
 78
     2
176
     1
 67
     7
176
     1
 79
     5
176
     1
170
     0
176
     1
171
     0
176
     1
290
     0
176
     1
 93
       13
176
     1
 44
0.0
176
     1
173
     0
176
     1
  0
VISUALSTYLE
  5
38
102
{ACAD_REACTORS
330
2A
102
}
330
2A
100
AcDbVisualStyle
  2
Linepattern
 70
    14
177
     2
291
     1
 71
     2
176
     1
 72
     2
176
     1
 73
     0
176
     1
 90
        0
176
     1
 40
-0.6
176
     1
 41
-30.0
176
     1
 62
     5
 63
     7
421
 16777215
176
     1
 74
     1
176
     1
 91
        4
176
     1
 64
     7
176
     1
 65
   257
176
     1
 75
     7
176
     1
175
     7
176
     1
 42
1.0
176
     1
 92
        8
176
     1
 66
     7
176
     1
 43
1.0
176
     1
 76
     1
176
     1
 77
     6
176
     1
 78
     2
176
     1
 67
     7
176
     1
 79
     5
176
     1
170
     0
176
     1
171
     0
176
     1
290
     0
176
     1
 93
        1
176
     1
 44
0.0
176
     1
173
     0
176
     1
  0
VISUALSTYLE
  5
33
102
{ACAD_REACTORS
330
2A
102
}
330
2A
100
AcDbVisualStyle
  2
Realistic
 70
     8
177
     2
291
     0
 71
     2
176
     1
 72
     2
176
     1
 73
     0
176
     1
 90
        0
176
     1
 40
-0.6
176
     1
 41
-30.0
176
     1
 62
     5
 63
     7
421
 16777215
176
     1
 74
     1
176
     1
 91
        0
176
     1
 64
     7
176
     1
 65
   257
176
     1
 75
     1
176
     1
175
     1
176
     1
 42
1.0
176
     1
 92
        8
176
     1
 66
     8
424
  7895160
176
     1
 43
1.0
176
     1
 76
     1
176
     1
 77
     6
176
     1
 78
     2
176
     1
 67
     7
176
     1
 79
     5
176
     1
170
     0
176
     1
171
     0
176
     1
290
     0
176
     1
 93
       13
176
     1
 44
0.0
176
     1
173
     0
176
     1
  0
VISUALSTYLE
  5
37
102
{ACAD_REACTORS
330
2A
102
}
330
2A
100
AcDbVisualStyle
  2
Thicken
 70
    13
177
     2
291
     1
 71
     2
176
     1
 72
     2
176
     1
 73
     0
176
     1
 90
        0
176
     1
 40
-0.6
176
     1
 41
-30.0
176
     1
 62
     5
 63
     7
421
 16777215
176
     1
 74
     1
176
     1
 91
        4
176
     1
 64
     7
176
     1
 65
   257
176
     1
 75
     1
176
     1
175
     1
176
     1
 42
1.0
176
     1
 92
       12
176
     1
 66
     7
176
     1
 43
1.0
176
     1
 76
     1
176
     1
 77
     6
176
     1
 78
     2
176
     1
 67
     7
176
     1
 79
     5
176
     1
170
     0
176
     1
171
     0
176
     1
290
     0
176
     1
 93
        1
176
     1
 44
0.0
176
     1
173
     0
176
     1
  0
ENDSEC
  0
EOF
